<svg xmlns="http://www.w3.org/2000/svg" width="18" height="18" fill="none"><path fill="#F5222D" d="M9 1.125a7.876 7.876 0 1 0 .001 15.751A7.876 7.876 0 0 0 9 1.125Zm0 14.414A6.54 6.54 0 0 1 9 2.461a6.54 6.54 0 0 1 0 13.078Z"/><path fill="#F5222D" d="M9 2.46a6.54 6.54 0 0 0 0 13.08A6.54 6.54 0 0 0 9 2.46Zm3.4 3.968-3.702 5.133a.558.558 0 0 1-.91 0l-2.19-3.037a.141.141 0 0 1 .115-.224h.824c.181 0 .35.088.456.234l1.251 1.737 2.763-3.832a.56.56 0 0 1 .456-.234h.824a.14.14 0 0 1 .113.223Z" opacity=".1"/><path fill="#F5222D" d="M12.286 6.205h-.824a.56.56 0 0 0-.455.234L8.243 10.27 6.992 8.534a.562.562 0 0 0-.455-.234h-.825c-.114 0-.18.13-.114.224l2.19 3.037a.558.558 0 0 0 .909 0l3.702-5.133a.14.14 0 0 0-.113-.223Z"/></svg>