<svg xmlns="http://www.w3.org/2000/svg" width="89" height="42" fill="none"><path fill="#000" d="M35.301 11.094h3.048l3.879 6.438.939 1.947-.144-8.388h2.886v12.267h-3.048l-3.879-6.441-.939-1.965.144 8.406h-2.886V11.09v.003ZM51.9 23.649c-3.012 0-4.869-1.947-4.869-5.142 0-3.195 1.875-5.16 4.761-5.16s4.725 1.929 4.725 5.106v.612h-6.675c.144 1.55.867 2.382 2.055 2.382.903 0 1.515-.396 1.803-1.281h2.886c-.504 2.235-2.31 3.48-4.689 3.48l.003.003Zm-2.001-6.168h3.771c-.216-1.263-.867-1.93-1.875-1.93s-1.677.667-1.893 1.93h-.003Z"/><path fill="#000" d="m61.383 20.961-.45-.939-.468.94-1.46 2.4H56.1l3.336-5.017-3.12-4.689h3.192l1.263 2.055.468.957.45-.957 1.245-2.055h2.886l-3.102 4.69 3.336 5.015h-3.192l-1.479-2.4ZM72.3 13.656h2.76v9.705H72.3v-1.299c-.633 1.083-1.587 1.587-2.76 1.587-1.84 0-3.192-1.119-3.192-3.534v-6.459h2.76v5.898c0 1.245.468 1.857 1.443 1.857 1.065 0 1.749-.939 1.749-2.184v-5.574.003ZM84.72 20.418c0 1.91-1.767 3.228-4.293 3.228-2.526 0-4.221-1.083-4.581-3.48h2.76c.126.903.867 1.389 1.893 1.389.975 0 1.461-.378 1.461-.975 0-1.875-5.88-.198-5.88-4.095 0-1.623 1.317-3.138 3.915-3.138 2.325 0 4.095 1.065 4.365 3.516h-2.742c-.162-.993-.741-1.407-1.713-1.407-.72 0-1.191.36-1.191.885 0 1.91 6.006.234 6.006 4.077ZM43.419 32.331c.975-.576 1.533-1.515 1.533-2.868 0-2.274-1.767-3.717-4.635-3.717h-5.016v12.267h2.886v-4.545h1.911c1.047 0 1.425.234 1.659 1.335l.684 3.21h3.012l-.921-3.753c-.216-.903-.558-1.515-1.119-1.929h.006Zm-3.228-1.1H38.19v-3.193h2.073c1.119 0 1.713.633 1.713 1.587s-.576 1.605-1.785 1.605ZM50.655 36.102c-1.19 0-1.91-.831-2.055-2.382h6.675v-.612c0-3.174-1.82-5.106-4.725-5.106-2.904 0-4.76 1.857-4.76 5.16s1.856 5.142 4.868 5.142c2.382 0 4.185-1.245 4.69-3.48H52.46c-.288.885-.903 1.281-1.803 1.281l-.003-.003Zm-.108-5.898c1.011 0 1.66.666 1.875 1.929h-3.77c.215-1.263.866-1.929 1.892-1.929h.003ZM61.371 28.002c-1.011 0-1.839.468-2.436 1.317v-1.011h-2.76V42h2.76v-4.959c.576.831 1.407 1.263 2.436 1.263 2.472 0 4.077-1.857 4.077-5.16s-1.569-5.142-4.077-5.142Zm-.576 8.064c-1.209 0-1.857-1.047-1.857-2.922 0-1.875.633-2.904 1.857-2.904s1.821 1.029 1.821 2.904-.633 2.922-1.821 2.922ZM70.644 28.002c-2.886 0-4.76 1.857-4.76 5.16s1.82 5.142 4.76 5.142c2.94 0 4.78-1.857 4.78-5.142s-1.84-5.16-4.78-5.16Zm0 8.064c-1.245 0-1.929-1.029-1.929-2.904s.67-2.922 1.93-2.922c1.26 0 1.946 1.047 1.946 2.922 0 1.875-.666 2.904-1.947 2.904ZM88.542 30.402V28.31h-1.983v-2.256h-2.76v1.377s-.012 1.074-2.127.594c-.97-.22-2.001.48-2.616 1.635v-1.353h-2.76v9.705h2.76v-5.016c0-1.533.738-2.472 2.4-2.472.426 0 .768.036 1.089.105 1.074.288 1.254 1.17 1.254 1.17v3.05c0 2.257.993 3.445 3.066 3.445.738 0 1.353-.108 1.659-.252V35.97h-.522c-1.191 0-1.443-.522-1.443-1.461v-4.113h1.983v.006Z"/><path fill="#F5222D" fill-rule="evenodd" d="M31.815 18.369v7.833L0 7.833V0l31.815 18.369ZM0 30.582v-7.833l12.111 6.993v7.833L0 30.582Zm31.815 6.993L0 19.209v-7.833l31.815 18.369v7.833-.003Zm0-30.582v7.833L19.704 7.833V0l12.111 6.993Z" clip-rule="evenodd"/></svg>